<svg width="25" height="17" viewBox="0 0 25 17" fill="none" xmlns="http://www.w3.org/2000/svg">
<path d="M10.9935 0.0934144C11.1564 0.170508 11.2938 0.291166 11.3901 0.441537C11.4864 0.591908 11.5375 0.765898 11.5377 0.943534V16.0568C11.5374 16.2345 11.4861 16.4086 11.3897 16.559C11.2932 16.7093 11.1555 16.8299 10.9925 16.9069C10.8294 16.9838 10.6475 17.014 10.4677 16.994C10.288 16.9739 10.1176 16.9044 9.97624 16.7935L5.43232 13.223H0.961472C0.706474 13.223 0.46192 13.1235 0.281609 12.9464C0.101298 12.7692 0 12.529 0 12.2785V4.72184C0 4.47132 0.101298 4.23107 0.281609 4.05393C0.46192 3.87678 0.706474 3.77727 0.961472 3.77727H5.43232L9.97624 0.206763C10.1177 0.0956583 10.2883 0.0260718 10.4682 0.00601826C10.6482 -0.0140353 10.8303 0.0162598 10.9935 0.0934144V0.0934144ZM9.61472 2.90825L6.36879 5.45861C6.1986 5.59275 5.98703 5.66604 5.76883 5.66642H1.92294V11.3339H5.76883C5.98703 11.3343 6.1986 11.4075 6.36879 11.5417L9.61472 14.092V2.90825ZM24.7175 4.05308C24.8071 4.14082 24.8781 4.24506 24.9266 4.35982C24.9751 4.47457 25 4.5976 25 4.72184C25 4.84609 24.9751 4.96911 24.9266 5.08387C24.8781 5.19862 24.8071 5.30286 24.7175 5.3906L21.5504 8.50015L24.7175 11.6097C24.8981 11.7871 24.9995 12.0276 24.9995 12.2785C24.9995 12.5293 24.8981 12.7699 24.7175 12.9472C24.537 13.1246 24.2921 13.2242 24.0368 13.2242C23.7815 13.2242 23.5366 13.1246 23.3561 12.9472L20.1909 9.83578L17.0258 12.9472C16.8452 13.1246 16.6004 13.2242 16.345 13.2242C16.0897 13.2242 15.8448 13.1246 15.6643 12.9472C15.4838 12.7699 15.3823 12.5293 15.3823 12.2785C15.3823 12.0276 15.4838 11.7871 15.6643 11.6097L18.8314 8.50015L15.6643 5.3906C15.5749 5.30278 15.504 5.19852 15.4556 5.08377C15.4072 4.96903 15.3823 4.84604 15.3823 4.72184C15.3823 4.59764 15.4072 4.47466 15.4556 4.35991C15.504 4.24516 15.5749 4.1409 15.6643 4.05308C15.8448 3.87572 16.0897 3.77607 16.345 3.77607C16.4715 3.77607 16.5966 3.80053 16.7134 3.84806C16.8302 3.89559 16.9364 3.96526 17.0258 4.05308L20.1909 7.16452L23.3561 4.05308C23.4454 3.96512 23.5515 3.89533 23.6683 3.84771C23.7851 3.80009 23.9103 3.77558 24.0368 3.77558C24.1633 3.77558 24.2885 3.80009 24.4053 3.84771C24.5221 3.89533 24.6282 3.96512 24.7175 4.05308V4.05308Z" fill="white"/>
</svg>
