<svg width="26" height="24" viewBox="0 0 26 24" fill="none" xmlns="http://www.w3.org/2000/svg">
<path d="M21.0192 23.98C22.5962 22.4073 23.847 20.5384 24.6995 18.4807C25.552 16.4231 25.9895 14.2173 25.9867 11.99C25.9895 9.76274 25.552 7.55691 24.6995 5.49926C23.847 3.44161 22.5962 1.57272 21.0192 0L19.6067 1.41047C20.9983 2.79818 22.1018 4.44722 22.854 6.26281C23.6062 8.07841 23.9922 10.0248 23.9897 11.99C23.9897 16.1217 22.3139 19.8623 19.6067 22.5695L21.0192 23.98Z" fill="white"/>
<path d="M18.1966 21.1584C19.4025 19.9557 20.3589 18.5265 21.0108 16.9529C21.6627 15.3794 21.9972 13.6926 21.9951 11.9894C21.9972 10.2862 21.6627 8.59933 21.0108 7.0258C20.3589 5.45228 19.4025 4.02307 18.1966 2.82031L16.7861 4.23078C17.8065 5.24853 18.6158 6.45788 19.1673 7.78936C19.7189 9.12083 20.0019 10.5482 20.0001 11.9894C20.0024 13.4308 19.7199 14.8584 19.1686 16.1902C18.6174 17.522 17.8084 18.7318 16.7881 19.75L18.1966 21.1584Z" fill="white"/>
<path d="M18.0049 11.9893C18.0065 13.1685 17.775 14.3363 17.3237 15.4258C16.8725 16.5152 16.2104 17.5047 15.3755 18.3374L13.9651 16.9269C14.6144 16.2792 15.1293 15.5096 15.4803 14.6622C15.8312 13.8148 16.0112 12.9065 16.0099 11.9893C16.0099 10.0621 15.2279 8.31649 13.9651 7.05166L15.3755 5.64118C16.2104 6.47392 16.8725 7.46342 17.3237 8.55285C17.775 9.64227 18.0065 10.8101 18.0049 11.9893ZM11.97 4.00927C11.9698 3.82157 11.9166 3.63775 11.8165 3.47894C11.7164 3.32014 11.5736 3.19278 11.4044 3.11152C11.2352 3.03025 11.0465 2.99838 10.86 3.01955C10.6735 3.04072 10.4968 3.11409 10.3501 3.23121L5.6359 7.00178H0.997504C0.732949 7.00178 0.47923 7.10687 0.292162 7.29394C0.105094 7.48101 0 7.73473 0 7.99928V15.9793C0 16.2439 0.105094 16.4976 0.292162 16.6847C0.47923 16.8717 0.732949 16.9768 0.997504 16.9768H5.6359L10.3501 20.7474C10.4968 20.8645 10.6735 20.9379 10.86 20.959C11.0465 20.9802 11.2352 20.9483 11.4044 20.8671C11.5736 20.7858 11.7164 20.6585 11.8165 20.4997C11.9166 20.3408 11.9698 20.157 11.97 19.9693V4.00927ZM6.60747 8.77734L9.97504 6.08408V17.8945L6.60747 15.2013C6.4309 15.0596 6.2114 14.9822 5.98502 14.9818H1.99501V8.99679H5.98502C6.2114 8.99639 6.4309 8.919 6.60747 8.77734Z" fill="white"/>
</svg>
